Coordinates
version=1
nRows=7
nColumns=63
inDegrees=yes

Units are S.I. units (second, meters, Newtons, ...)
If the header above contains a line with 'inDegrees', this indicates whether rotational values are in degrees (yes) or radians (no).

endheader
time	pelvis_tilt	pelvis_list	pelvis_rotation	pelvis_tx	pelvis_ty	pelvis_tz	hip_flexion_r	hip_adduction_r	hip_rotation_r	knee_angle_r	knee_angle_r_beta	ankle_angle_r	subtalar_angle_r	mtp_angle_r	hip_flexion_l	hip_adduction_l	hip_rotation_l	knee_angle_l	knee_angle_l_beta	ankle_angle_l	subtalar_angle_l	mtp_angle_l	L5_S1_Flex_Ext	L5_S1_Lat_Bending	L5_S1_axial_rotation	L4_L5_Flex_Ext	L4_L5_Lat_Bending	L4_L5_axial_rotation	L3_L4_Flex_Ext	L3_L4_Lat_Bending	L3_L4_axial_rotation	L2_L3_Flex_Ext	L2_L3_Lat_Bending	L2_L3_axial_rotation	L1_L2_Flex_Ext	L1_L2_Lat_Bending	L1_L2_axial_rotation	L1_T12_Flex_Ext	L1_T12_Lat_Bending	L1_T12_axial_rotation	Abs_r3	Abs_r2	Abs_r1	Abs_t1	Abs_t2	neck_flexion	neck_bending	neck_rotation	arm_flex_r	arm_add_r	arm_rot_r	elbow_flex_r	pro_sup_r	wrist_flex_r	wrist_dev_r	arm_flex_l	arm_add_l	arm_rot_l	elbow_flex_l	pro_sup_l	wrist_flex_l	wrist_dev_l
      2.48333333	      1.43255840	     -6.66358355	     91.30615877	      0.29789744	      0.92536965	      0.47078377	     -5.77288418	      1.89718082	     -1.66411509	      3.05199924	      0.05326744	     28.48285454	      3.97457631	      0.00000000	     -3.60337612	     -4.36152420	     -7.22796535	      4.83830103	      0.08444428	     33.94614797	      9.12538669	      0.00000000	     -0.03855603	     -0.17045564	      1.31437439	     -0.07160240	     -0.22670600	      1.39652279	     -0.06334370	     -0.41444585	      1.39652279	     -0.04406568	     -0.41444585	      1.15007759	     -0.03580313	     -0.34759315	      1.06792919	     -0.02203091	     -0.26403579	      0.98578079	     -0.27540186	     -1.92822831	      7.31015605	      0.00000000	      0.00000000	     24.55091653	     -2.73960031	      2.39035383	     10.58987336	    -18.67822660	     30.78819958	     72.91578889	     74.89219122	     35.65328225	     10.26083197	     10.43870666	    -16.43153504	     44.68619883	     78.77947352	     69.96822630	      0.58214949	      2.34054762
      2.50000000	      1.37740558	     -6.85386876	     91.28121226	      0.29775779	      0.92517484	      0.47039878	     -5.55432669	      1.78719394	     -2.54912262	      3.19972354	      0.05584571	     28.75655162	      5.17984630	      0.00000000	     -3.52574559	     -4.28425100	     -7.47515605	      4.55212668	      0.07944960	     33.99368204	      9.73151854	      0.00000000	     -0.03164003	     -0.18096610	      1.30468342	     -0.05875871	     -0.24068492	      1.38622613	     -0.05198141	     -0.44000099	      1.38622613	     -0.03616139	     -0.44000099	      1.14159799	     -0.02938093	     -0.36902608	      1.06005528	     -0.01807912	     -0.28031650	      0.97851256	     -0.22600159	     -2.04712476	      7.25625778	      0.00000000	      0.00000000	     24.54919546	     -2.77043167	      2.07814903	     10.32683717	    -18.54743731	     30.62548941	     73.79001968	     75.66584170	     35.23405993	     11.30654347	     10.73490197	    -16.66080541	     44.75727826	     79.05879552	     70.40101006	      1.39169145	      2.49280856
      2.51666667	      1.33942478	     -6.99338414	     91.26701124	      0.29750038	      0.92488679	      0.47009715	     -5.42593016	      1.69535860	     -3.07181355	      3.28223993	      0.05728589	     29.01059646	      6.05678018	      0.00000000	     -3.45045857	     -4.21826509	     -7.49465133	      4.39208208	      0.07665629	     33.96356913	      9.94513237	      0.00000000	     -0.03090927	     -0.18210706	      1.25679994	     -0.05740161	     -0.24220239	      1.33534994	     -0.05078084	     -0.44277510	      1.33534994	     -0.03532621	     -0.44277510	      1.09969995	     -0.02870235	     -0.37135271	      1.02114995	     -0.01766156	     -0.28208383	      0.94259996	     -0.22078184	     -2.06003146	      6.98994423	      0.00000000	      0.00000000	     24.70783898	     -2.50257787	      2.16297672	     10.29116215	    -18.47170769	     30.72702573	     74.57088843	     76.70819140	     34.98161617	     11.95500636	     10.91160685	    -16.89371564	     44.58846121	     79.38781640	     71.08032100	      2.30603730	      2.79791541
      2.53333333	      1.28413154	     -7.12830291	     91.10752381	      0.29729934	      0.92441471	      0.46959252	     -5.29206643	      1.57013495	     -3.32400420	      3.45808922	      0.06035504	     29.19196191	      6.61563410	      0.00000000	     -3.53719161	     -4.07426685	     -6.91563572	      3.97856804	      0.06943911	     33.61232209	      9.17970373	      0.00000000	     -0.01947962	     -0.17669296	      1.21320389	     -0.03617560	     -0.23500163	      1.28902914	     -0.03200306	     -0.42961126	      1.28902914	     -0.02226325	     -0.42961126	      1.06155341	     -0.01808877	     -0.36031228	      0.98572816	     -0.01113065	     -0.27369739	      0.90990292	     -0.13914096	     -1.99878607	      6.74747609	      0.00000000	      0.00000000	     25.03679353	     -1.92748957	      2.71223833	     10.24231825	    -18.51278155	     31.08752638	     75.42676255	     76.95668736	     34.10013194	     12.96915926	     10.72244546	    -17.11196190	     44.30149483	     79.88887538	     70.38144994	      2.44370037	      3.07584742
      2.55000000	      1.18729386	     -7.16989920	     90.95909222	      0.29710504	      0.92400260	      0.46955676	     -5.23117849	      1.38402782	     -4.09677127	      3.73520404	      0.06519161	     29.42232090	      7.77130276	      0.00000000	     -3.49080570	     -3.96887413	     -7.71623629	      4.03701114	      0.07045914	     33.57216783	     10.02636140	      0.00000000	     -0.02674482	     -0.17099138	      1.19383067	     -0.04966780	     -0.22741853	      1.26844509	     -0.04393906	     -0.41574843	      1.26844509	     -0.03056665	     -0.41574843	      1.04460184	     -0.02483524	     -0.34868561	      0.96998742	     -0.01528199	     -0.26486564	      0.89537301	     -0.19103557	     -1.93428864	      6.63972806	      0.00000000	      0.00000000	     25.52824546	     -1.46473033	      2.98900664	     10.12709665	    -18.48927010	     30.92619780	     76.03855040	     78.75363012	     34.08465682	     12.52145484	     10.68098092	    -17.22449081	     43.75946795	     80.27304695	     71.53751993	      3.58671908	      3.94836580
      2.56666667	      1.02071617	     -7.22380919	     90.77860418	      0.29705931	      0.92357802	      0.46962935	     -5.12076536	      1.10861083	     -5.51412631	      4.16321995	      0.07266190	     29.62849155	      9.54162451	      0.00000000	     -3.38322069	     -3.81610683	     -8.89055987	      4.20814390	      0.07344597	     33.66280482	     11.31046309	      0.00000000	     -0.02522256	     -0.17040691	      1.19104917	     -0.04684082	     -0.22664119	      1.26548975	     -0.04143815	     -0.41432737	      1.26548975	     -0.02882687	     -0.41432737	      1.04216803	     -0.02342167	     -0.34749377	      0.96772745	     -0.01441217	     -0.26396031	      0.89328688	     -0.18016225	     -1.92767707	      6.62425820	      0.00000000	      0.00000000	     25.97507747	     -1.40294068	      2.80299279	     10.07472585	    -18.56408490	     31.02974408	     76.40399093	     80.52545004	     33.80126917	     11.17960691	     10.59373206	    -17.35603994	     43.22109227	     80.58960926	     72.39289767	      4.98085252	      4.77861905
      2.58333333	      0.84926142	     -7.17291122	     90.68744306	      0.29690868	      0.92327307	      0.46963286	     -5.25087624	      0.89707621	     -5.72679307	      4.33982195	      0.07574418	     29.45791099	      9.51182638	      0.00000000	     -3.39826856	     -3.62032357	     -9.01850687	      4.30674422	      0.07516687	     33.62524306	     11.23931368	      0.00000000	     -0.03171866	     -0.16283920	      1.18287205	     -0.05890472	     -0.21657614	      1.25680156	     -0.05211059	     -0.39592723	      1.25680156	     -0.03625126	     -0.39592723	      1.03501305	     -0.02945395	     -0.33206170	      0.96108354	     -0.01812404	     -0.25223792	      0.88715404	     -0.22656321	     -1.84206960	      6.57877950	      0.00000000	      0.00000000	     26.25113319	     -1.43944872	      2.75326379	      9.96365544	    -18.61523974	     31.01446035	     76.72581288	     80.63378936	     33.76723548	     11.25699046	     10.50635110	    -17.52607128	     43.16856337	     80.86201393	     72.33380426	      5.00626681	      4.81190600
